<svg baseProfile="full" height="100%" version="1.1" viewBox="25.0,5.0,475.0,420.0" width="100%" xmlns="http://www.w3.org/2000/svg" xmlns:ev="http://www.w3.org/2001/xml-events" xmlns:xlink="http://www.w3.org/1999/xlink"><defs /><g><line stroke="lightgrey" stroke-dasharray="2" x1="150.0" x2="149.0" y1="15.0" y2="15.0" /><line stroke="lightgrey" stroke-dasharray="2" x1="130.0" x2="149.0" y1="35.0" y2="35.0" /><line stroke="lightgrey" stroke-dasharray="2" x1="110.0" x2="149.0" y1="55.0" y2="55.0" /><line stroke="lightgrey" stroke-dasharray="2" x1="90.0" x2="149.0" y1="75.0" y2="75.0" /><line stroke="lightgrey" stroke-dasharray="2" x1="70.0" x2="149.0" y1="95.0" y2="95.0" /><line stroke="lightgrey" stroke-dasharray="2" x1="50.0" x2="149.0" y1="115.0" y2="115.0" /><line stroke="lightgrey" stroke-dasharray="2" x1="130.0" x2="149.0" y1="135.0" y2="135.0" /><line stroke="lightgrey" stroke-dasharray="2" x1="70.0" x2="149.0" y1="155.0" y2="155.0" /><line stroke="lightgrey" stroke-dasharray="2" x1="50.0" x2="149.0" y1="175.0" y2="175.0" /><line stroke="lightgrey" stroke-dasharray="2" x1="130.0" x2="149.0" y1="195.0" y2="195.0" /><line stroke="lightgrey" stroke-dasharray="2" x1="50.0" x2="149.0" y1="215.0" y2="215.0" /><line stroke="lightgrey" stroke-dasharray="2" x1="150.0" x2="149.0" y1="235.0" y2="235.0" /><line stroke="lightgrey" stroke-dasharray="2" x1="150.0" x2="149.0" y1="255.0" y2="255.0" /><line stroke="lightgrey" stroke-dasharray="2" x1="150.0" x2="149.0" y1="275.0" y2="275.0" /><line stroke="lightgrey" stroke-dasharray="2" x1="150.0" x2="149.0" y1="295.0" y2="295.0" /><line stroke="lightgrey" stroke-dasharray="2" x1="110.0" x2="149.0" y1="315.0" y2="315.0" /><line stroke="lightgrey" stroke-dasharray="2" x1="110.0" x2="149.0" y1="335.0" y2="335.0" /><line stroke="lightgrey" stroke-dasharray="2" x1="130.0" x2="149.0" y1="355.0" y2="355.0" /><line stroke="lightgrey" stroke-dasharray="2" x1="50.0" x2="149.0" y1="375.0" y2="375.0" /><line stroke="lightgrey" stroke-dasharray="2" x1="150.0" x2="149.0" y1="395.0" y2="395.0" /><line stroke="lightgrey" stroke-dasharray="2" x1="50.0" x2="49.0" y1="415.0" y2="415.0" /></g><g><line stroke="#c6c653" stroke-width="2.0" x1="115.0" x2="115.0" y1="35.0" y2="135.0" /><line stroke="#5353c6" stroke-width="2.0" x1="55.0" x2="55.0" y1="95.0" y2="155.0" /><line stroke="#c653c6" stroke-width="2.0" x1="35.0" x2="35.0" y1="115.0" y2="175.0" /><line stroke="#c65353" stroke-width="2.0" x1="115.0" x2="115.0" y1="135.0" y2="195.0" /><line stroke="#53c653" stroke-width="2.0" x1="95.0" x2="95.0" y1="55.0" y2="220.0" /><line stroke="#c65353" stroke-width="2.0" x1="135.0" x2="135.0" y1="15.0" y2="235.0" /><line stroke="#53c6c6" stroke-width="2.0" x1="75.0" x2="75.0" y1="75.0" y2="340.0" /><line stroke="#8cd98c" stroke-width="2.0" x1="115.0" x2="115.0" y1="195.0" y2="355.0" /><line stroke="#8cd9d9" stroke-width="2.0" x1="35.0" x2="35.0" y1="215.0" y2="375.0" /><line stroke="#993333" stroke-width="2.0" x1="135.0" x2="135.0" y1="295.0" y2="395.0" /><line stroke="#333399" stroke-width="2.0" x1="35.0" x2="35.0" y1="375.0" y2="415.0" /></g><g><line stroke="white" stroke-width="6.0" x1="115.0" x2="120.0" y1="135.0" y2="135.0" /><line stroke="white" stroke-width="6.0" x1="55.0" x2="120.0" y1="155.0" y2="155.0" /><line stroke="white" stroke-width="6.0" x1="35.0" x2="120.0" y1="175.0" y2="175.0" /><line stroke="white" stroke-width="6.0" x1="35.0" x2="100.0" y1="215.0" y2="215.0" /><line stroke="white" stroke-width="6.0" x1="110.0" x2="135.0" y1="235.0" y2="235.0" /><line stroke="white" stroke-width="6.0" x1="130.0" x2="135.0" y1="255.0" y2="255.0" /><line stroke="white" stroke-width="6.0" x1="130.0" x2="135.0" y1="275.0" y2="275.0" /><line stroke="white" stroke-width="6.0" x1="130.0" x2="135.0" y1="295.0" y2="295.0" /><line stroke="white" stroke-width="6.0" x1="90.0" x2="95.0" y1="315.0" y2="315.0" /><line stroke="white" stroke-width="6.0" x1="95.0" x2="100.0" y1="315.0" y2="315.0" /><line stroke="white" stroke-width="6.0" x1="95.0" x2="100.0" y1="335.0" y2="335.0" /><line stroke="white" stroke-width="6.0" x1="90.0" x2="115.0" y1="355.0" y2="355.0" /></g><g><path d="M 135.0,120.0 a15.0,15.0 0 0,1 -15.0,15.0" fill="none" stroke="#c65353" stroke-width="2.0" /><line stroke="#c65353" stroke-width="2.0" x1="115.0" x2="120.0" y1="135.0" y2="135.0" /><path d="M 135.0,140.0 a15.0,15.0 0 0,1 -15.0,15.0" fill="none" stroke="#c65353" stroke-width="2.0" /><line stroke="#c65353" stroke-width="2.0" x1="55.0" x2="120.0" y1="155.0" y2="155.0" /><path d="M 135.0,160.0 a15.0,15.0 0 0,1 -15.0,15.0" fill="none" stroke="#c65353" stroke-width="2.0" /><line stroke="#c65353" stroke-width="2.0" x1="35.0" x2="120.0" y1="175.0" y2="175.0" /><path d="M 115.0,200.0 a15.0,15.0 0 0,1 -15.0,15.0" fill="none" stroke="#8cd98c" stroke-width="2.0" /><line stroke="#8cd98c" stroke-width="2.0" x1="35.0" x2="100.0" y1="215.0" y2="215.0" /><path d="M 95.0,220.0 a15.0,15.0 0 0,0 15.0,15.0" fill="none" stroke="#53c653" stroke-width="2.0" /><path d="M 115.0,220.0 a15.0,15.0 0 0,0 15.0,15.0" fill="none" stroke="#8cd98c" stroke-width="2.0" /><line stroke="#53c653" stroke-width="2.0" x1="110.0" x2="135.0" y1="235.0" y2="235.0" /><path d="M 115.0,240.0 a15.0,15.0 0 0,0 15.0,15.0" fill="none" stroke="#8cd98c" stroke-width="2.0" /><line stroke="#8cd98c" stroke-width="2.0" x1="130.0" x2="135.0" y1="255.0" y2="255.0" /><path d="M 115.0,260.0 a15.0,15.0 0 0,0 15.0,15.0" fill="none" stroke="#8cd98c" stroke-width="2.0" /><line stroke="#8cd98c" stroke-width="2.0" x1="130.0" x2="135.0" y1="275.0" y2="275.0" /><path d="M 115.0,280.0 a15.0,15.0 0 0,0 15.0,15.0" fill="none" stroke="#8cd98c" stroke-width="2.0" /><line stroke="#8cd98c" stroke-width="2.0" x1="130.0" x2="135.0" y1="295.0" y2="295.0" /><path d="M 75.0,300.0 a15.0,15.0 0 0,0 15.0,15.0" fill="none" stroke="#53c6c6" stroke-width="2.0" /><line stroke="#53c6c6" stroke-width="2.0" x1="90.0" x2="95.0" y1="315.0" y2="315.0" /><path d="M 115.0,300.0 a15.0,15.0 0 0,1 -15.0,15.0" fill="none" stroke="#8cd98c" stroke-width="2.0" /><line stroke="#8cd98c" stroke-width="2.0" x1="95.0" x2="100.0" y1="315.0" y2="315.0" /><path d="M 115.0,320.0 a15.0,15.0 0 0,1 -15.0,15.0" fill="none" stroke="#8cd98c" stroke-width="2.0" /><line stroke="#8cd98c" stroke-width="2.0" x1="95.0" x2="100.0" y1="335.0" y2="335.0" /><path d="M 75.0,340.0 a15.0,15.0 0 0,0 15.0,15.0" fill="none" stroke="#53c6c6" stroke-width="2.0" /><line stroke="#53c6c6" stroke-width="2.0" x1="90.0" x2="115.0" y1="355.0" y2="355.0" /></g><g><circle cx="135.0" cy="15.0" fill="#c65353" id="Nfastp_trim" r="6.0" stroke="white" stroke-width="2.0" /><text dominant-baseline="middle" fill="currentColor" font-family="sans-serif" font-size="inherit" x="155.0" y="15.0">fastp_trim</text><circle cx="115.0" cy="35.0" fill="#c6c653" id="Nhisat2_build" r="6.0" stroke="white" stroke-width="2.0" /><text dominant-baseline="middle" fill="currentColor" font-family="sans-serif" font-size="inherit" x="155.0" y="35.0">hisat2_build</text><circle cx="95.0" cy="55.0" fill="#53c653" id="Nfastqc_raw" r="6.0" stroke="white" stroke-width="2.0" /><text dominant-baseline="middle" fill="currentColor" font-family="sans-serif" font-size="inherit" x="155.0" y="55.0">fastqc_raw</text><circle cx="75.0" cy="75.0" fill="#53c6c6" id="Nbuild_rseqc_bed" r="6.0" stroke="white" stroke-width="2.0" /><text dominant-baseline="middle" fill="currentColor" font-family="sans-serif" font-size="inherit" x="155.0" y="75.0">build_rseqc_bed</text><circle cx="55.0" cy="95.0" fill="#5353c6" id="Nsalmon_index" r="6.0" stroke="white" stroke-width="2.0" /><text dominant-baseline="middle" fill="currentColor" font-family="sans-serif" font-size="inherit" x="155.0" y="95.0">salmon_index</text><circle cx="35.0" cy="115.0" fill="#c653c6" id="Nsalmon_decoy_index" r="6.0" stroke="white" stroke-width="2.0" /><text dominant-baseline="middle" fill="currentColor" font-family="sans-serif" font-size="inherit" x="155.0" y="115.0">salmon_decoy_index</text><circle cx="115.0" cy="135.0" fill="#c65353" id="Nhisat2_align" r="6.0" stroke="white" stroke-width="2.0" /><text dominant-baseline="middle" fill="currentColor" font-family="sans-serif" font-size="inherit" x="155.0" y="135.0">hisat2_align</text><circle cx="55.0" cy="155.0" fill="#d98c8c" id="Nsalmon_quant" r="6.0" stroke="white" stroke-width="2.0" /><text dominant-baseline="middle" fill="currentColor" font-family="sans-serif" font-size="inherit" x="155.0" y="155.0">salmon_quant</text><circle cx="35.0" cy="175.0" fill="#d9d98c" id="Nsalmon_decoy_quant" r="6.0" stroke="white" stroke-width="2.0" /><text dominant-baseline="middle" fill="currentColor" font-family="sans-serif" font-size="inherit" x="155.0" y="175.0">salmon_decoy_quant</text><circle cx="115.0" cy="195.0" fill="#8cd98c" id="Nsamtools_sort_filter_index" r="6.0" stroke="white" stroke-width="2.0" /><text dominant-baseline="middle" fill="currentColor" font-family="sans-serif" font-size="inherit" x="155.0" y="195.0">samtools_sort_filter_index</text><circle cx="35.0" cy="215.0" fill="#8cd9d9" id="Nfeaturecount" r="6.0" stroke="white" stroke-width="2.0" /><text dominant-baseline="middle" fill="currentColor" font-family="sans-serif" font-size="inherit" x="155.0" y="215.0">featurecount</text><circle cx="135.0" cy="235.0" fill="#8c8cd9" id="Nmultiqc" r="6.0" stroke="white" stroke-width="2.0" /><text dominant-baseline="middle" fill="currentColor" font-family="sans-serif" font-size="inherit" x="155.0" y="235.0">multiqc</text><circle cx="135.0" cy="255.0" fill="#d98cd9" id="Npicard_mean_fragment_length" r="6.0" stroke="white" stroke-width="2.0" /><text dominant-baseline="middle" fill="currentColor" font-family="sans-serif" font-size="inherit" x="155.0" y="255.0">picard_mean_fragment_length</text><circle cx="135.0" cy="275.0" fill="#d98c8c" id="Nqualimap_bamqc" r="6.0" stroke="white" stroke-width="2.0" /><text dominant-baseline="middle" fill="currentColor" font-family="sans-serif" font-size="inherit" x="155.0" y="275.0">qualimap_bamqc</text><circle cx="135.0" cy="295.0" fill="#993333" id="Nsamtools_sort_by_name" r="6.0" stroke="white" stroke-width="2.0" /><text dominant-baseline="middle" fill="currentColor" font-family="sans-serif" font-size="inherit" x="155.0" y="295.0">samtools_sort_by_name</text><circle cx="95.0" cy="315.0" fill="#999933" id="Nrseqc_read_distribution" r="6.0" stroke="white" stroke-width="2.0" /><text dominant-baseline="middle" fill="currentColor" font-family="sans-serif" font-size="inherit" x="155.0" y="315.0">rseqc_read_distribution</text><circle cx="95.0" cy="335.0" fill="#339933" id="Nrseqc_gc_content" r="6.0" stroke="white" stroke-width="2.0" /><text dominant-baseline="middle" fill="currentColor" font-family="sans-serif" font-size="inherit" x="155.0" y="335.0">rseqc_gc_content</text><circle cx="115.0" cy="355.0" fill="#339999" id="Nrseqc_tin" r="6.0" stroke="white" stroke-width="2.0" /><text dominant-baseline="middle" fill="currentColor" font-family="sans-serif" font-size="inherit" x="155.0" y="355.0">rseqc_tin</text><circle cx="35.0" cy="375.0" fill="#333399" id="Ndeg" r="6.0" stroke="white" stroke-width="2.0" /><text dominant-baseline="middle" fill="currentColor" font-family="sans-serif" font-size="inherit" x="155.0" y="375.0">deg</text><circle cx="135.0" cy="395.0" fill="#993399" id="Nqualimap_rnaseq" r="6.0" stroke="white" stroke-width="2.0" /><text dominant-baseline="middle" fill="currentColor" font-family="sans-serif" font-size="inherit" x="155.0" y="395.0">qualimap_rnaseq</text><circle cx="35.0" cy="415.0" fill="#993333" id="Ndeg_enrich" r="6.0" stroke="white" stroke-width="2.0" /><text dominant-baseline="middle" fill="currentColor" font-family="sans-serif" font-size="inherit" x="55.0" y="415.0">deg_enrich</text></g></svg>